<svg width="21" height="21" viewBox="0 0 21 21" fill="none" xmlns="http://www.w3.org/2000/svg">
<path d="M7 3.27783C4.58763 3.27783 2.625 5.147 2.625 7.4445V14.1112C2.625 16.4087 4.58763 18.2778 7 18.2778H14C16.4124 18.2778 18.375 16.4087 18.375 14.1112V7.4445C18.375 5.147 16.4124 3.27783 14 3.27783H7ZM7 4.9445H14C15.4473 4.9445 16.625 6.06617 16.625 7.4445V14.1112C16.625 15.4895 15.4473 16.6112 14 16.6112H7C5.55275 16.6112 4.375 15.4895 4.375 14.1112V7.4445C4.375 6.06617 5.55275 4.9445 7 4.9445ZM14.875 5.77783C14.6429 5.77783 14.4204 5.86563 14.2563 6.02191C14.0922 6.17819 14 6.39015 14 6.61117C14 6.83218 14.0922 7.04414 14.2563 7.20042C14.4204 7.3567 14.6429 7.4445 14.875 7.4445C15.1071 7.4445 15.3296 7.3567 15.4937 7.20042C15.6578 7.04414 15.75 6.83218 15.75 6.61117C15.75 6.39015 15.6578 6.17819 15.4937 6.02191C15.3296 5.86563 15.1071 5.77783 14.875 5.77783ZM10.5 6.61117C8.08763 6.61117 6.125 8.48033 6.125 10.7778C6.125 13.0753 8.08763 14.9445 10.5 14.9445C12.9124 14.9445 14.875 13.0753 14.875 10.7778C14.875 8.48033 12.9124 6.61117 10.5 6.61117ZM10.5 8.27783C11.9473 8.27783 13.125 9.3995 13.125 10.7778C13.125 12.1562 11.9473 13.2778 10.5 13.2778C9.05275 13.2778 7.875 12.1562 7.875 10.7778C7.875 9.3995 9.05275 8.27783 10.5 8.27783Z" fill="black"/>
</svg>
